<svg xmlns="http://www.w3.org/2000/svg" width="700" height="500" viewBox="0 0 700 500">
<rect width="100%" height="100%" fill="#fff7fb"/>
<circle cx="565" cy="120" r="72" fill="#ffd8ea"/>
<circle cx="610" cy="175" r="44" fill="#ffe8a3"/>
<g transform="translate(90 40)">
  <ellipse cx="170" cy="320" rx="155" ry="35" fill="#f4d9e6"/>
  <path d="M170 300 C140 230 120 150 130 70" stroke="#5ca04a" stroke-width="8" fill="none"/>
  <path d="M180 300 C200 220 235 150 260 95" stroke="#5ca04a" stroke-width="8" fill="none"/>
  <path d="M190 300 C210 240 280 190 340 160" stroke="#5ca04a" stroke-width="8" fill="none"/>
  <g transform="translate(92 32)">
    <circle cx="40" cy="40" r="22" fill="#ff6fa9"/>
    <circle cx="66" cy="40" r="22" fill="#ff6fa9"/>
    <circle cx="53" cy="20" r="22" fill="#ff8abc"/>
    <circle cx="53" cy="60" r="22" fill="#ff8abc"/>
    <circle cx="53" cy="40" r="18" fill="#ffd75e"/>
  </g>
  <g transform="translate(215 50)">
    <circle cx="40" cy="40" r="22" fill="#ff85b6"/>
    <circle cx="66" cy="40" r="22" fill="#ff85b6"/>
    <circle cx="53" cy="20" r="22" fill="#ff9bc5"/>
    <circle cx="53" cy="60" r="22" fill="#ff9bc5"/>
    <circle cx="53" cy="40" r="18" fill="#ffd75e"/>
  </g>
  <g transform="translate(300 120)">
    <circle cx="40" cy="40" r="25" fill="#ffcf45"/>
    <g fill="#ffd95f">
      <circle cx="40" cy="5" r="14"/>
      <circle cx="70" cy="18" r="14"/>
      <circle cx="78" cy="48" r="14"/>
      <circle cx="40" cy="78" r="14"/>
      <circle cx="10" cy="48" r="14"/>
      <circle cx="12" cy="18" r="14"/>
    </g>
    <circle cx="40" cy="40" r="16" fill="#7b4a12"/>
  </g>
</g>
<text x="40" y="458" font-family="Segoe UI, Arial" font-size="28" fill="#c63b83" font-weight="700">Florería Valeria</text>
</svg>
